<?xml version="1.0" encoding="utf-8"?>
<svg viewBox="0 108.08 2344.773 391.92" width="2344.653px" height="391.9px" xmlns="http://www.w3.org/2000/svg">
  <path fill="#251A31" d="M 596.902 298.507 C 529.893 333.702 396.837 317.996 332.68 276.621 C 280.353 242.874 204.101 171.843 189.237 106.176 C 199.478 105.767 212.433 104.338 225.352 102.923 C 323.701 105.815 532.883 101.523 609.33 101.721 C 623.962 101.759 636.799 101.931 648.302 102.121 C 666.825 104.251 690.397 105.778 705.486 106.401 C 710.079 106.591 714.513 106.8 718.569 106.918 C 723.728 178.273 664.09 263.219 596.902 298.507 Z M 993.132 474.861 C 1033.302 474.557 1127.824 471.023 1151.212 474.861 C 1160.415 476.371 1162.228 478.708 1165.208 481.173 C 1167.404 482.989 1168.143 484.836 1169.051 487.211 C 1170.066 489.868 1171.24 493.11 1170.697 496.542 C 1170.485 497.881 1169.978 499.491 1169.299 501.16 C 1141.212 500.227 1090.538 503.124 1052.961 502.854 C 1007.493 502.528 938.203 497.11 907.417 499.607 C 907.103 498.107 906.974 496.522 907.231 494.895 C 907.893 490.708 910.694 484.061 914.092 480.898 C 917.306 477.908 919.906 477.102 926.717 475.958 C 939.577 473.799 964.735 475.075 993.132 474.861 Z" style=""/>
  <path fill="#251A31" d="M 410.616 653.145 C 337.017 696.375 218.685 689.887 139.031 634.713 C 79.262 593.312 48.086 538.575 22.802 519.616 C 33.514 519.26 45.593 518.198 57.037 517.562 C 72.73 516.69 96.724 514.916 115.483 512.947 C 215.74 511.126 352.722 505.314 404.594 501.186 C 420.684 501.962 439.872 501.075 449.697 499.444 C 469.548 499.156 487.57 498.68 500.476 497.871 C 499.92 555.41 467.301 620.099 410.616 653.145 Z" style="" transform="matrix(-0.999103, -0.042337, 0.042337, -0.999103, 479.165863, 1019.607361)"/>
  <path fill="#251A31" d="M 1125.957 196.068 C 1150.712 195.418 1178.177 205.47 1218.406 226.218 C 1258.247 246.968 1310.855 278.416 1322.073 314.079 C 1332.904 350.065 1302.73 389.944 1254.765 393.509 C 1206.802 396.752 1141.429 363.357 1089.209 382.486 C 1037.376 401.615 999.082 473.589 946.86 499.525 C 938.039 503.939 928.814 507.02 919.505 508.887 C 898.105 498.585 848.021 485.781 822.938 479.271 C 819.198 474.465 816.226 469.201 814.184 463.538 C 798.711 421.715 833.524 358.819 860.6 315.051 C 887.677 271.283 907.019 247.292 916.302 214.872 C 925.586 182.451 924.811 141.6 946.473 141.275 C 968.135 140.952 1011.846 180.829 1045.112 194.771 C 1078.378 209.035 1100.813 197.04 1125.957 196.068 Z" style="" transform="matrix(-0.944197, 0.329381, -0.329381, -0.944197, 2182.522705, 282.61496)"/>
  <path fill="#251A31" d="M 672.533 726.035 C 622.864 751.972 555.429 731.871 536.852 690.048 C 517.888 648.225 547.449 585.329 570.871 541.561 C 572.461 538.59 574.023 535.71 575.555 532.913 C 612.251 548.963 749.4 596.634 798.383 611.915 C 751.909 634.558 720.32 701.275 672.533 726.035 Z" style="" transform="matrix(-0.944197, 0.329381, -0.329381, -0.944197, 1705.029297, 816.530701)"/>
  <path fill="#251A31" d="M 1367.089 379.175 C 1380.984 429.716 1354.025 485.726 1306.154 490.732 C 1258.258 495.287 1189.807 448.385 1138.968 475.251 C 1088.518 502.117 1056.097 603.202 1005.825 639.629 C 995.9 646.877 983.465 651.671 969.524 654.408 C 969.36 654.313 969.192 654.216 969.02 654.119 C 963.371 650.923 949.486 645.873 933.023 640.495 C 911.984 632.931 887.31 625.262 878.633 623.629 C 878.468 623.598 878.306 623.568 878.148 623.539 C 866.452 617.169 844.184 609.125 826.68 602.381 C 806.353 594.548 773.524 581.807 760.395 579.024 C 731.415 536.035 726.607 476.943 762.643 417.764 C 808.216 342.923 920.341 273.783 1020.89 249.987 C 1035.649 256.017 1056.26 262.843 1069.341 266.682 C 1116.774 286.752 1242.003 331.491 1310.041 354.03 C 1332.604 362.464 1354.464 370.122 1365.071 372.874 C 1365.814 374.963 1366.488 377.064 1367.089 379.175 Z" style="" transform="matrix(-0.944197, 0.329381, -0.329381, -0.944197, 2302.381104, 402.293823)"/>
  <path fill="#251A31" d="M 1627.895 675.036 C 1545.279 700.709 1383.204 662.75 1340.32 639.186 C 1314.126 624.793 1251.094 592.026 1221.325 552.104 C 1249.329 550.289 1285.32 546.52 1312.581 543.326 C 1321.904 542.234 1330.217 540.996 1338.212 539.668 C 1401.766 536.316 1508.491 527.486 1582.378 521.743 C 1625.335 518.404 1680.879 514.677 1726.293 511.094 C 1755.025 510.268 1791.103 506.778 1808.367 504.157 C 1775.458 573.334 1694.59 654.309 1627.895 675.036 Z" style="" transform="matrix(-0.996741, -0.080669, 0.080669, -0.996741, 3174.96167, 1150.539795)"/>
  <path fill="#251A31" d="M 2213.31 346.157 C 2141.101 387.097 1994.03 376.847 1923.666 330.532 C 1866.721 293.049 1772.632 219.824 1748.019 108.482 C 1771.325 108.992 1817.483 102.629 1863.287 101.887 C 1936.368 100.703 2061.03 104.375 2147.479 104.837 C 2213.446 105.19 2301.611 108.144 2342.219 106.2 C 2358.895 192.246 2290.756 302.247 2213.31 346.157 Z" style=""/>
</svg>