<?xml version="1.0" encoding="utf-8"?>
<svg viewBox="0 0 259.7 700" width="259.7px" height="700px" xmlns="http://www.w3.org/2000/svg">
  <g transform="matrix(1, 0, 0, 1, 388.517303, 685.127197)">
    <path d="M95 -223.2C133.7 -80.7 183.1 -60.8 199.6 -26.4C216.1 8 199.9 57 188.4 138.7C176.9 220.4 170.2 334.8 79.7 481.6C-10.7 628.3 -184.9 807.5 -302.8 785C-420.7 762.5 -482.3 538.2 -452.5 368.5C-422.6 198.7 -301.4 83.5 -298.7 -73.7C-296.1 -230.8 -411.9 -429.9 -381.9 -573.9C-351.8 -717.9 -175.9 -807 -73.9 -718.9C28.1 -630.9 56.2 -365.7 95 -223.2" fill="#281c34"/>
  </g>
</svg>