<svg id="visual" viewBox="0 0 900 300" width="900" height="300" xmlns="http://www.w3.org/2000/svg" xmlns:xlink="http://www.w3.org/1999/xlink" version="1.1"><rect x="0" y="0" width="900" height="300" fill="#6a439d"></rect><path d="M0 181L37.5 188.2C75 195.3 150 209.7 225 203C300 196.3 375 168.7 450 153.8C525 139 600 137 675 142.8C750 148.7 825 162.3 862.5 169.2L900 176L900 301L862.5 301C825 301 750 301 675 301C600 301 525 301 450 301C375 301 300 301 225 301C150 301 75 301 37.5 301L0 301Z" fill="#160d20" stroke-linecap="round" stroke-linejoin="miter"></path></svg>