<svg id="visual" viewBox="0 0 900 300" width="900" height="300" xmlns="http://www.w3.org/2000/svg" xmlns:xlink="http://www.w3.org/1999/xlink" version="1.1"><rect x="0" y="0" width="900" height="300" fill="#160d20"></rect><path d="M0 260L37.5 253.3C75 246.7 150 233.3 225 228.3C300 223.3 375 226.7 450 236.8C525 247 600 264 675 272.5C750 281 825 281 862.5 281L900 281L900 301L862.5 301C825 301 750 301 675 301C600 301 525 301 450 301C375 301 300 301 225 301C150 301 75 301 37.5 301L0 301Z" fill="#6a439d" stroke-linecap="round" stroke-linejoin="miter"></path></svg>