<?xml version="1.0" encoding="utf-8"?>
<svg viewBox="-4.419 -4.394 891.442 501.09" xmlns="http://www.w3.org/2000/svg">
  <path fill="#6A439D" d="M 794.87 23.367 C 876.991 47.458 915.856 127.764 862.571 173.94 C 809.288 220.116 637.388 206.64 581.106 290.384 C 531.007 364.929 494.382 460.506 413.731 483.92 C 344.056 504.148 233.818 470.67 150.443 412.047 C 66.442 353.825 13.158 280.747 -0.633 199.236 C -15.05 117.324 10.652 26.578 94.653 2.888 C 178.027 -21.203 319.7 21.76 453.224 26.98 C 586.748 32.2 712.123 -0.324 794.87 23.367 Z" style=""/>
  <g transform="matrix(1, 0, 0, 1, -52.979347, -4.726729)">
    <title>Layer 1</title>
    <path stroke="null" d="M 79.378 282.797 C 85.017 293.436 86.123 296.328 92.873 305.311 L 761.34 312.574 C 769.839 303.591 777.796 293.918 785.153 283.624 L 118.833 282.624 L 79.378 282.797 Z" fill="#3f3d56" id="svg_4" data-darkreader-inline-fill="" style="--darkreader-inline-fill:#323145;"/>
    <path d="m493.76323,189.92465l0,85.704a4.12233,4.12233 0 0 0 4.11906,4.11907l127.00449,0a4.12232,4.12232 0 0 0 4.11907,-4.11907l0,-85.704a4.12433,4.12433 0 0 0 -4.11907,-4.11452l-127.00448,0a4.12434,4.12434 0 0 0 -4.11907,4.11452z" fill="#3f3d56" id="svg_5" data-darkreader-inline-fill="" style="--darkreader-inline-fill:#323145;"/>
    <path d="m496.74269,190.99101l0,83.58039a2.20523,2.20523 0 0 0 2.20141,2.20141l124.88546,0a2.20522,2.20522 0 0 0 2.20141,-2.20141l0,-83.58039a2.20621,2.20621 0 0 0 -2.20141,-2.206l-124.88546,0a2.20623,2.20623 0 0 0 -2.20141,2.206z" fill="#6c63ff" id="svg_6" data-darkreader-inline-fill="" style="--darkreader-inline-fill:#080091;"/>
    <path d="m491.10706,292.3432a2.46985,2.46985 0 0 0 1.94346,0.92984l135.99195,0a2.5024,2.5024 0 0 0 2.44606,-3.0157l-2.111,-10.02722a2.50694,2.50694 0 0 0 -1.55811,-1.81784a2.42467,2.42467 0 0 0 -0.888,-0.1675l-131.77827,0a2.42446,2.42446 0 0 0 -0.888,0.1675a2.50671,2.50671 0 0 0 -1.55811,1.81784l-2.111,10.02722a2.5005,2.5005 0 0 0 0.51102,2.08586z" fill="#2f2e41" id="svg_7" data-darkreader-inline-fill="" style="--darkreader-inline-fill:#262534;"/>
    <rect x="513.96439" y="207.07039" width="5.96585" height="3.12216" rx="1.56108" fill="#fff" id="svg_41" data-darkreader-inline-fill="" style="--darkreader-inline-fill:#e8e6e3;"/>
    <rect x="546.4874" y="207.07039" width="5.96585" height="3.12216" rx="1.56108" fill="#fff" id="svg_42" data-darkreader-inline-fill="" style="--darkreader-inline-fill:#e8e6e3;"/>
    <rect x="555.70225" y="207.07039" width="5.96585" height="3.12216" rx="1.56108" fill="#fff" id="svg_43" data-darkreader-inline-fill="" style="--darkreader-inline-fill:#e8e6e3;"/>
    <rect x="522.81075" y="206.81012" width="20.79613" height="3.12216" rx="1.56108" fill="#fff" id="svg_44" data-darkreader-inline-fill="" style="--darkreader-inline-fill:#181a1b;"/>
    <rect x="566.17477" y="206.81012" width="20.79613" height="3.12216" rx="1.56108" fill="#fff" id="svg_45" data-darkreader-inline-fill="" style="--darkreader-inline-fill:#181a1b;"/>
    <rect x="522.63719" y="214.11705" width="5.96585" height="3.12216" rx="1.56108" fill="#fff" id="svg_46" data-darkreader-inline-fill="" style="--darkreader-inline-fill:#e8e6e3;"/>
    <rect x="555.1602" y="214.11705" width="5.96585" height="3.12216" rx="1.56108" fill="#fff" id="svg_47" data-darkreader-inline-fill="" style="--darkreader-inline-fill:#e8e6e3;"/>
    <rect x="564.37505" y="214.11705" width="5.96585" height="3.12216" rx="1.56108" fill="#fff" id="svg_48" data-darkreader-inline-fill="" style="--darkreader-inline-fill:#e8e6e3;"/>
    <rect x="531.48356" y="213.85677" width="20.79613" height="3.12216" rx="1.56108" fill="#fff" id="svg_49" data-darkreader-inline-fill="" style="--darkreader-inline-fill:#181a1b;"/>
    <rect x="574.84757" y="213.85677" width="20.79613" height="3.12216" rx="1.56108" fill="#fff" id="svg_50" data-darkreader-inline-fill="" style="--darkreader-inline-fill:#181a1b;"/>
    <rect x="531.30999" y="221.1637" width="5.96585" height="3.12216" rx="1.56108" fill="#fff" id="svg_51" data-darkreader-inline-fill="" style="--darkreader-inline-fill:#e8e6e3;"/>
    <rect x="563.833" y="221.1637" width="5.96585" height="3.12216" rx="1.56108" fill="#fff" id="svg_52" data-darkreader-inline-fill="" style="--darkreader-inline-fill:#e8e6e3;"/>
    <rect x="573.04786" y="221.1637" width="5.96585" height="3.12216" rx="1.56108" fill="#fff" id="svg_53" data-darkreader-inline-fill="" style="--darkreader-inline-fill:#e8e6e3;"/>
    <rect x="540.15636" y="220.90343" width="20.79613" height="3.12216" rx="1.56108" fill="#fff" id="svg_54" data-darkreader-inline-fill="" style="--darkreader-inline-fill:#181a1b;"/>
    <rect x="583.52037" y="220.90343" width="20.79613" height="3.12216" rx="1.56108" fill="#fff" id="svg_55" data-darkreader-inline-fill="" style="--darkreader-inline-fill:#181a1b;"/>
    <rect x="539.9828" y="228.21035" width="5.96585" height="3.12216" rx="1.56108" fill="#fff" id="svg_56" data-darkreader-inline-fill="" style="--darkreader-inline-fill:#e8e6e3;"/>
    <rect x="572.50581" y="228.21035" width="5.96585" height="3.12216" rx="1.56108" fill="#fff" id="svg_57" data-darkreader-inline-fill="" style="--darkreader-inline-fill:#e8e6e3;"/>
    <rect x="581.72066" y="228.21035" width="5.96585" height="3.12216" rx="1.56108" fill="#fff" id="svg_58" data-darkreader-inline-fill="" style="--darkreader-inline-fill:#e8e6e3;"/>
    <rect x="548.82916" y="227.95008" width="20.79613" height="3.12216" rx="1.56108" fill="#fff" id="svg_59" data-darkreader-inline-fill="" style="--darkreader-inline-fill:#181a1b;"/>
    <rect x="546.4874" y="256.23083" width="5.96585" height="3.12216" rx="1.56108" fill="#fff" id="svg_60" data-darkreader-inline-fill="" style="--darkreader-inline-fill:#e8e6e3;"/>
    <rect x="555.70225" y="256.23083" width="5.96585" height="3.12216" rx="1.56108" fill="#fff" id="svg_61" data-darkreader-inline-fill="" style="--darkreader-inline-fill:#e8e6e3;"/>
    <rect x="566.17477" y="256.49111" width="20.79613" height="3.12216" rx="1.56108" fill="#fff" id="svg_62" data-darkreader-inline-fill="" style="--darkreader-inline-fill:#181a1b;"/>
    <rect x="513.96439" y="256.23083" width="5.96585" height="3.12216" rx="1.56108" fill="#fff" id="svg_63" data-darkreader-inline-fill="" style="--darkreader-inline-fill:#e8e6e3;"/>
    <rect x="522.81075" y="256.49111" width="20.79613" height="3.12216" rx="1.56108" fill="#fff" id="svg_64" data-darkreader-inline-fill="" style="--darkreader-inline-fill:#181a1b;"/>
    <rect x="522.63719" y="249.18418" width="5.96585" height="3.12216" rx="1.56108" fill="#fff" id="svg_65" data-darkreader-inline-fill="" style="--darkreader-inline-fill:#e8e6e3;"/>
    <rect x="555.1602" y="249.18418" width="5.96585" height="3.12216" rx="1.56108" fill="#fff" id="svg_66" data-darkreader-inline-fill="" style="--darkreader-inline-fill:#e8e6e3;"/>
    <rect x="564.37505" y="249.18418" width="5.96585" height="3.12216" rx="1.56108" fill="#fff" id="svg_67" data-darkreader-inline-fill="" style="--darkreader-inline-fill:#e8e6e3;"/>
    <rect x="531.48356" y="249.44445" width="20.79613" height="3.12216" rx="1.56108" fill="#fff" id="svg_68" data-darkreader-inline-fill="" style="--darkreader-inline-fill:#181a1b;"/>
    <rect x="531.30999" y="242.13753" width="5.96585" height="3.12216" rx="1.56108" fill="#fff" id="svg_69" data-darkreader-inline-fill="" style="--darkreader-inline-fill:#e8e6e3;"/>
    <rect x="563.833" y="242.13753" width="5.96585" height="3.12216" rx="1.56108" fill="#fff" id="svg_70" data-darkreader-inline-fill="" style="--darkreader-inline-fill:#e8e6e3;"/>
    <rect x="573.04786" y="242.13753" width="5.96585" height="3.12216" rx="1.56108" fill="#fff" id="svg_71" data-darkreader-inline-fill="" style="--darkreader-inline-fill:#e8e6e3;"/>
    <rect x="540.15636" y="242.3978" width="20.79613" height="3.12216" rx="1.56108" fill="#fff" id="svg_72" data-darkreader-inline-fill="" style="--darkreader-inline-fill:#181a1b;"/>
    <rect x="539.9828" y="235.09087" width="5.96585" height="3.12216" rx="1.56108" fill="#fff" id="svg_73" data-darkreader-inline-fill="" style="--darkreader-inline-fill:#e8e6e3;"/>
    <rect x="572.50581" y="235.09087" width="5.96585" height="3.12216" rx="1.56108" fill="#fff" id="svg_74" data-darkreader-inline-fill="" style="--darkreader-inline-fill:#e8e6e3;"/>
    <rect x="581.72066" y="235.09087" width="5.96585" height="3.12216" rx="1.56108" fill="#fff" id="svg_75" data-darkreader-inline-fill="" style="--darkreader-inline-fill:#e8e6e3;"/>
    <rect x="548.82916" y="235.35115" width="20.79613" height="3.12216" rx="1.56108" fill="#fff" id="svg_76" data-darkreader-inline-fill="" style="--darkreader-inline-fill:#181a1b;"/>
    <path d="m503.25057,338.81493l-13.34954,-21.10162l41.902,-33.40283l17.29534,-19.16107a19.16138,19.16138 0 0 1 32.418,6.8279l0,0a19.16136,19.16136 0 0 1 -11.57015,23.991l-27.3488,10.07535l-39.34685,32.77127z" fill="#ffb6b6" id="svg_77" data-darkreader-inline-fill="" style="--darkreader-inline-fill:#5f0000;"/>
    <path d="m270.0231,185.14746l0,102.56l71.85,0l0,-102.56a3.448,3.448 0 0 0 -2.43,-3.3a3.1749,3.1749 0 0 0 -1.03,-0.16l-64.92,0a3.46328,3.46328 0 0 0 -3.47,3.46zm28.04,35.24a7.67033,7.67033 0 0 1 15.34,0l0,11.9a7.6701,7.6701 0 0 1 -15.34,0l0,-11.9z" fill="#2f2e41" id="svg_78" data-darkreader-inline-fill="" style="--darkreader-inline-fill:#262534;"/>
    <path d="m189.80336,285.0942l0,9.89a1.94622,1.94622 0 0 0 1.93,1.94l68.43,0a1.93972,1.93972 0 0 0 1.93,-1.94l0,-9.89l-72.29,0z" fill="#3f3d56" id="svg_79" data-darkreader-inline-fill="" style="--darkreader-inline-fill:#323145;"/>
    <path d="m156.9931,30.62753l0,187.25992a9.00714,9.00714 0 0 0 9,9l277.5,0a9.0071,9.0071 0 0 0 9,-9l0,-187.25992a9.01147,9.01147 0 0 0 -9,-8.99l-277.5,0a9.01151,9.01151 0 0 0 -9,8.99z" fill="#3f3d56" id="svg_80" data-darkreader-inline-fill="" style="--darkreader-inline-fill:#323145;"/>
    <path d="m163.5031,32.95746l0,182.62a4.81833,4.81833 0 0 0 4.81,4.81l272.87,0a4.81829,4.81829 0 0 0 4.81,-4.81l0,-182.62a4.82047,4.82047 0 0 0 -4.81,-4.82l-272.87,0a4.82051,4.82051 0 0 0 -4.81,4.82z" fill="#fff" id="svg_81" data-darkreader-inline-fill="" style="--darkreader-inline-fill:#181a1b;"/>
    <path d="m214.1431,295.58746a2.9484,2.9484 0 0 0 2.32,1.11l162.34,0a2.98725,2.98725 0 0 0 2.92,-3.6l-2.52,-11.97a2.99264,2.99264 0 0 0 -1.86,-2.17a2.89454,2.89454 0 0 0 -1.06,-0.19995l-157.31,0a2.8943,2.8943 0 0 0 -1.06,0.19995a2.99239,2.99239 0 0 0 -1.86,2.17l-2.52,11.97a2.985,2.985 0 0 0 0.61,2.49z" fill="#2f2e41" id="svg_82" data-darkreader-inline-fill="" style="--darkreader-inline-fill:#262534;"/>
    <path d="m432.32761,53.29419l-255.32336,0a1.0156,1.0156 0 0 1 0,-2.0307l255.32336,0a1.0156,1.0156 0 0 1 0,2.0307z" fill="#3f3d56" id="svg_83" data-darkreader-inline-fill="" style="--darkreader-inline-fill:#323145;"/>
    <ellipse cx="194.38444" cy="39.99629" rx="5.95043" ry="6.08304" fill="#3f3d56" id="svg_84" data-darkreader-inline-fill="" style="--darkreader-inline-fill:#bab4ab;"/>
    <ellipse cx="214.94046" cy="39.99629" rx="5.95043" ry="6.08304" fill="#3f3d56" id="svg_85" data-darkreader-inline-fill="" style="--darkreader-inline-fill:#bab4ab;"/>
    <ellipse cx="235.49649" cy="39.99629" rx="5.95043" ry="6.08304" fill="#3f3d56" id="svg_86" data-darkreader-inline-fill="" style="--darkreader-inline-fill:#bab4ab;"/>
    <path d="m419.94947,35.41753l-14.6,0a1.1053,1.1053 0 0 0 0,2.21l14.6,0a1.10511,1.10511 0 0 0 0,-2.21z" fill="#3f3d56" id="svg_87" data-darkreader-inline-fill="" style="--darkreader-inline-fill:#bab4ab;"/>
    <path d="m419.94947,39.56753l-14.6,0a1.10527,1.10527 0 0 0 0,2.21l14.6,0a1.10508,1.10508 0 0 0 0,-2.21z" fill="#3f3d56" id="svg_88" data-darkreader-inline-fill="" style="--darkreader-inline-fill:#bab4ab;"/>
    <path d="m419.94947,43.71747l-14.6,0a1.1053,1.1053 0 0 0 0,2.21l14.6,0a1.10511,1.10511 0 0 0 0,-2.21z" fill="#3f3d56" id="svg_89" data-darkreader-inline-fill="" style="--darkreader-inline-fill:#bab4ab;"/>
    <path d="m691.92905,289.43458a6.41621,6.41621 0 0 0 6.1831,4.331l26.49183,-0.68178a6.3285,6.3285 0 0 0 5.98085,-4.657l3.74888,-40.08721a9.79409,9.79409 0 0 0 4.23793,0.87079a9.66133,9.66133 0 1 0 -0.4849,-19.31658a8.18393,8.18393 0 0 0 -1.73618,0.18056a6.54764,6.54764 0 0 0 -4.87405,-2.103l-40.75051,1.05229a5.85294,5.85294 0 0 0 -1.00519,0.1248a6.36455,6.36455 0 0 0 -4.87318,8.26464l7.08142,52.02149zm43.17345,-43.81684l2.66764,-9.55274a6.50649,6.50649 0 0 0 0.02036,-3.37458c0.12944,-0.00034 0.24363,-0.06169 0.37307,-0.062a6.91049,6.91049 0 0 1 0.32357,13.81714a6.50527,6.50527 0 0 1 -3.38464,-0.82782z" fill="#2f2e41" id="svg_90" stroke="null" data-darkreader-inline-fill="" style="--darkreader-inline-fill:#262534;"/>
    <path d="m689.72081,229.14843c0.86818,4.96412 10.62909,8.45387 22.36585,7.84729c10.79271,-0.49726 19.61745,-4.287 21.23421,-8.7785a6.02511,6.02511 0 0 0 -1.84436,-0.24588l-40.75051,1.05229a5.85294,5.85294 0 0 0 -1.00519,0.1248z" fill="#3f3d56" id="svg_91" data-darkreader-inline-fill="" style="--darkreader-inline-fill:#323145;"/>
    <path d="m714.23768,267.40635a0.49659,0.49659 0 0 0 0.15091,-0.06642l5.75315,-3.76566a0.49923,0.49923 0 0 0 0.00032,-0.83621l-5.97978,-3.91667a0.49972,0.49972 0 1 0 -0.54792,0.83585l5.34091,3.49818l-5.114,3.34794a0.49991,0.49991 0 0 0 0.39637,0.903l0.00004,-0.00001z" fill="#6c63ff" id="svg_92" data-darkreader-inline-fill="" style="--darkreader-inline-fill:#5f96ff;"/>
    <path d="m705.15092,267.82539a0.5,0.5 0 0 0 0.12608,-0.91842l-5.30306,-3.04034l5.1256,-3.80723a0.49963,0.49963 0 1 0 -0.596,-0.80208l-5.73862,4.26265a0.49951,0.49951 0 0 0 0.04918,0.83476l5.96525,3.41968a0.4997,0.4997 0 0 0 0.37157,0.05098z" fill="#6c63ff" id="svg_93" data-darkreader-inline-fill="" style="--darkreader-inline-fill:#5f96ff;"/>
    <path d="m713.66545,270.70636a0.48233,0.48233 0 0 0 0.137,-0.05785a0.49976,0.49976 0 0 0 0.16752,-0.68714l-8.15548,-13.40836a0.50026,0.50026 0 0 0 -0.85442,0.52058l8.15548,13.40835a0.50035,0.50035 0 0 0 0.5499,0.22442z" fill="#6c63ff" id="svg_94" data-darkreader-inline-fill="" style="--darkreader-inline-fill:#5f96ff;"/>
    <rect x="287.71767" y="108.49379" width="50.71916" height="10.8457" rx="3.26417" fill="#6c63ff" id="svg_95" data-darkreader-inline-fill="" style="--darkreader-inline-fill:#080091;"/>
    <rect x="261.95914" y="130.18518" width="102.23622" height="10.8457" rx="3.26417" fill="#e6e6e6" id="svg_96" data-darkreader-inline-fill="" style="--darkreader-inline-fill:#26292b;"/>
    <rect x="261.95914" y="151.87657" width="102.23622" height="10.8457" rx="3.26417" fill="#e6e6e6" id="svg_97" data-darkreader-inline-fill="" style="--darkreader-inline-fill:#26292b;"/>
    <path d="m289.04453,225.1792l0.21675,0.68444l0.01142,0.02283l6.52515,19.838l7.50627,22.86094l14.1227,42.96133l0.13688,6.67346l0,0.02283l1.04949,53.6845l-2.90894,7.2781l3.274,11.93237s-1.50582,-18.037 -9.5824,-7.67884c-4.57448,5.8864 -9.92468,11.90961 -14.31668,17.55642q9.59964,3.88436 19.50716,7.0271c1.426,0.45633 2.86334,0.88983 4.30071,1.32333q0.46194,0.13692 0.924,0.27377a266.86342,266.86342 0 0 0 67.35086,10.82587c1.18637,0.03425 2.35,0.057 3.47932,0.07986c0.39932,0.01142 0.78714,0.02284 1.175,0.02284c1.27765,0.01142 2.54389,0.02277 3.82154,0.02277q3.86721,0 7.70018,-0.11405a266.85337,266.85337 0 0 0 56.09149,-7.58613c-0.12547,-7.58606 -0.46768,-16.44984 -0.9582,-25.91819c-0.22817,-4.64293 -5.3502,-9.67369 -5.65823,-14.53336c-0.21675,-3.65047 4.38057,-7.08419 4.141,-10.79169c-1.55143,-22.82675 -3.49075,-14.06417 -4.92813,-30.22882q-0.22245,-2.37852 -0.41066,-4.55165c-0.924,-10.381 -1.56284,-16.872 -1.56284,-16.872l6.13733,-38.68338l9.6395,-60.73442l-0.74153,-1.22063l-0.83274,-0.41066l-50.844,-25.16532l-2.76064,-7.07276a10.97881,10.97881 0 0 0 -10.14143,-6.94731l-33.4929,-0.13688a10.93117,10.93117 0 0 0 -8.90946,4.52888l-9.069,12.55978l-59.99297,38.46667z" fill="#3f3d56" id="svg_98" data-darkreader-inline-fill="" style="--darkreader-inline-fill:#323145;"/>
    <path d="m325.14983,301.98699l-7.58613,16.23321l-5.179,11.08822l-8.90939,46.646l-4.46044,4.73414l-3.82157,-16.75936l-39.99772,8.88094c-1.31191,-7.28951 -0.3512,0.24662 -1.16117,-7.75009c0.22817,-0.22817 0.46768,-0.45634 0.70727,-0.68451c0.63882,-0.59322 1.175,-1.15218 1.1636,-1.68831c-0.45633,-27.58374 0.9126,-74.52633 12.34311,-102.96564a60.05328,60.05328 0 0 1 7.02709,-13.1074c0.22817,-0.308 0.44492,-0.61606 0.66167,-0.924c5.27034,-7.3808 8.60136,-14.64748 13.32415,-19.81511l0,-0.01142a0.53028,0.53028 0 0 0 0.07986,-0.07987a0.157,0.157 0 0 0 0.04561,-0.03425l32.44341,-17.20272l1.39177,39.10546l0.99247,28.10851l0.93541,26.2262z" fill="#3f3d56" id="svg_99" data-darkreader-inline-fill="" style="--darkreader-inline-fill:#323145;"/>
    <path d="m442.1347,306.59769l9.476,20.275l3.30742,7.06091l8.90681,46.64162l4.44575,4.72264l3.83039,-16.75524l1.7998,-0.36918l32.4585,-6.72243l9.46058,30.04631a17.984,17.984 0 0 0 -3.26122,-22.50556c-0.64606,-0.58457 -1.18444,-1.15373 -1.16913,-1.69211c0.53847,-32.4431 -1.446,-91.68363 -19.36733,-116.06588c-5.69179,-7.73777 -9.1068,-15.44474 -14.07562,-20.82885c-0.0154,-0.0153 -0.0154,-0.0307 -0.03071,-0.0307l-12.09124,-19.79812l-0.73836,-1.21533l-0.83066,-0.41528l-22.12098,97.6522z" fill="#3f3d56" id="svg_100" data-darkreader-inline-fill="" style="--darkreader-inline-fill:#323145;"/>
    <circle id="a657ec4b-47ce-4d2a-9c58-81a811696ca9" data-name="Ellipse 5" cx="384.72983" cy="115.53384" r="44.55826" fill="#ffb6b6" data-darkreader-inline-fill="" style="--darkreader-inline-fill:#5f0000;"/>
    <path d="m424.81777,92.61737a2.94828,3.0575 0 0 0 -2.10965,-0.96784l0.52545,-1.51276a2.76661,2.86911 0 0 0 -3.10565,-3.82256l-1.91358,0.38226l0.18038,-1.3257a2.77146,2.87413 0 0 0 -3.70953,-3.10685a2.95375,3.06318 0 0 1 -2.54099,-0.18706a3.01662,3.12837 0 0 1 -1.50577,-2.12278l-0.66662,-3.33457l-0.07058,-0.17893c-3.24682,-5.61184 -9.48949,-9.69466 -17.12814,-11.19115c-6.79954,-1.34196 -13.77153,-0.65878 -20.4926,-0.01627c-2.66647,0.26026 -5.67801,0.55305 -8.18763,2.14714c-2.13318,1.36636 -3.93696,4.09909 -3.56836,6.85621c-6.62696,-2.10647 -13.73232,2.09834 -17.25362,7.40113c-4.17224,6.31129 -4.85454,14.21667 -4.96434,20.39783c-0.29802,14.62332 2.61157,26.58712 8.62681,35.56607c0.43918,0.65065 0.54898,2.00888 1.4195,2.46433l-0.18038,-0.30092c0.97248,0.50425 1.96064,1.31756 1.59204,2.18781c-1.05875,2.505 5.97603,8.04364 10.93252,9.87359c9.04247,3.34271 21.06511,3.05805 29.51938,1.85435l0.29802,-2.07394c3.05075,-0.43105 5.19961,-1.2525 5.80349,-2.53753c1.06663,-0.94344 1.97632,-1.78928 2.76842,-2.57006l0.00784,-0.00813c0.01569,-0.01627 0.04706,-0.04067 0.06274,-0.05693c3.81932,-3.79816 4.70553,-5.96153 5.1055,-9.25543c0.38429,-3.22884 -0.29802,-6.50648 -0.996,-9.4588c14.69695,2.3586 -5.78781,-16.23368 7.9053,-19.82851a4.26165,4.41953 0 0 1 0.4784,-0.122c0.39997,-0.0976 0.79994,-0.19519 1.18423,-0.30906a20.74235,21.51081 0 0 0 5.2702,-2.3342c3.82717,-2.41553 5.08982,-5.61998 7.06614,-9.23108a2.68727,2.78683 0 0 0 -0.35292,-3.27765l0,-0.00001z" fill="#2f2e41" id="svg_101" stroke="null" data-darkreader-inline-fill="" style="--darkreader-inline-fill:#262534;"/>
    <path stroke="null" d="M 542.326 338.388 C 542.316 340.963 542.296 344.567 542.216 349.025 C 542.206 349.643 542.196 350.275 542.186 350.923 C 542.056 359.117 541.926 365.987 541.716 373.623 C 541.706 374.152 541.696 374.667 541.676 375.197 C 541.396 385.848 540.956 398.25 540.196 417.89 C 538.786 454.169 524.83 445.491 536.294 439.44 C 537.509 438.799 536.177 442.334 535.855 443.165 C 535.061 445.214 532.689 446.14 531.671 447.788 C 530.482 449.179 529.111 450.139 527.98 451.446 C 524.782 455.142 523.147 456.664 519.229 459.466 C 517.035 461.035 515.488 462.776 513.288 464.277 C 512.938 464.512 509.712 467.134 509.377 467.362 C 498.112 475.029 492.254 479.304 479.375 484.293 C 477.008 485.21 470.159 487.513 467.819 488.44 C 465.379 489.44 461.393 491.101 458.923 491.983 C 440.548 498.62 422.248 500.475 403.336 501.262 C 400.786 501.379 398.216 501.423 395.636 501.423 C 394.356 501.423 393.096 501.409 391.816 501.394 C 391.426 501.394 391.036 501.379 390.646 501.365 C 389.516 501.32 388.346 501.291 387.166 501.247 C 364.345 500.2 341.709 494.845 319.816 485.314 L 318.886 484.917 C 317.446 484.27 316.016 483.637 314.586 482.96 C 307.986 479.885 301.482 476.443 295.076 472.633 C 290.186 469.734 285.352 466.625 280.576 463.305 C 280.532 463.288 280.491 463.258 280.456 463.217 C 279.456 462.54 278.446 461.834 277.446 461.113 C 277.316 461.01 277.176 460.907 277.036 460.804 C 273.306 458.127 269.195 455.112 266.071 451.653 C 261.513 442.397 258.576 440.031 255.896 430.91 C 255.101 428.204 254.552 425.367 254.216 422.466 C 254.216 422.436 254.206 422.407 254.206 422.363 C 254.486 427.835 253.016 412.653 254.196 422.304 C 254.186 422.127 254.176 421.936 254.166 421.715 C 254.136 421.186 254.096 420.538 254.036 419.729 C 250.606 370.46 250.826 314.114 249.336 267.684 C 249.236 264.682 249.132 261.809 249.026 259.063 C 248.996 258.15 248.956 257.253 248.916 256.37 C 248.986 256.106 249.066 255.826 249.156 255.561 C 249.175 255.485 249.198 255.411 249.226 255.341 C 249.255 255.249 249.289 255.161 249.326 255.076 C 249.346 255.032 249.376 254.973 249.396 254.929 C 249.41 254.878 249.427 254.829 249.446 254.782 C 249.536 254.576 249.636 254.355 249.746 254.149 C 249.796 254.061 249.836 253.987 249.886 253.914 C 249.92 253.838 249.96 253.769 250.006 253.708 C 250.036 253.637 250.073 253.573 250.116 253.516 C 250.156 253.457 250.196 253.384 250.246 253.31 C 250.267 253.264 250.294 253.224 250.326 253.193 C 250.405 253.059 250.492 252.936 250.586 252.825 C 250.942 252.342 251.324 251.899 251.726 251.501 C 251.866 251.368 252.016 251.236 252.156 251.089 C 253.163 250.202 254.225 249.453 255.326 248.853 C 255.706 248.647 256.086 248.456 256.496 248.25 C 256.646 248.191 256.786 248.117 256.936 248.044 C 257.156 247.941 257.376 247.838 257.606 247.764 C 258.746 247.264 259.976 246.837 261.306 246.44 C 261.466 246.396 261.636 246.352 261.806 246.293 C 262.046 246.219 262.296 246.161 262.546 246.102 C 262.886 246.013 263.236 245.925 263.586 245.837 C 266.556 245.145 269.926 244.631 273.646 244.292 C 273.996 244.263 274.346 244.233 274.696 244.204 C 275.106 244.174 275.516 244.145 275.936 244.116 C 276.286 244.086 276.646 244.071 277.006 244.057 C 277.356 244.027 277.716 244.013 278.086 243.998 C 279.096 243.954 280.136 243.91 281.196 243.88 C 284.216 243.792 287.396 243.821 290.736 243.924 C 292.286 243.983 293.866 244.042 295.486 244.145 C 295.596 244.145 295.696 244.16 295.796 244.16 C 297.206 244.233 298.626 244.322 300.086 244.439 C 301.106 244.513 302.136 244.586 303.166 244.675 C 304.136 244.763 305.116 244.851 306.106 244.954 C 306.876 245.013 307.646 245.101 308.426 245.175 C 309.086 245.248 309.746 245.322 310.406 245.381 L 311.306 245.469 C 311.796 245.528 312.286 245.572 312.786 245.646 C 313.886 245.778 314.986 245.91 316.106 246.043 C 317.216 246.19 318.346 246.337 319.476 246.484 C 320.606 246.631 321.746 246.793 322.886 246.955 C 323.006 246.97 323.116 246.984 323.226 246.999 C 324.266 247.161 325.306 247.308 326.356 247.47 C 326.596 247.499 326.846 247.529 327.086 247.573 C 328.087 247.721 329.107 247.894 330.118 248.052 C 330.428 248.101 330.736 248.149 331.047 248.199 C 331.838 248.326 332.619 248.436 333.415 248.573 C 334.465 248.75 335.536 248.912 336.575 249.118 C 337.385 249.25 338.195 249.382 339.005 249.529 C 340.275 249.75 341.565 249.986 342.855 250.236 C 343.345 250.324 343.835 250.412 344.325 250.515 C 348.005 251.192 351.725 251.942 355.505 252.722 C 361.235 253.914 367.055 255.208 372.915 256.606 C 378.786 258.003 384.689 259.48 390.625 261.034 C 392.125 261.431 393.625 261.828 395.135 262.24 C 395.815 262.432 396.495 262.623 397.175 262.814 C 398.335 263.123 399.495 263.447 400.655 263.77 C 401.815 264.094 402.975 264.418 404.135 264.756 C 405.515 265.153 406.905 265.55 408.285 265.948 C 417.375 268.596 426.415 271.42 435.235 274.377 C 436.685 274.863 438.135 275.363 439.575 275.849 C 442.455 276.834 445.309 277.835 448.135 278.85 C 448.915 279.115 449.685 279.394 450.455 279.674 C 452.375 280.38 454.295 281.086 456.185 281.807 L 456.515 281.939 C 457.905 282.44 459.265 282.954 460.625 283.484 C 463.835 284.72 466.992 285.97 470.095 287.236 C 472.155 288.074 474.192 288.922 476.205 289.781 C 479.215 291.061 482.165 292.355 485.035 293.665 C 485.745 293.988 486.455 294.312 487.155 294.621 C 489.255 295.577 491.325 296.548 493.335 297.519 C 494.935 298.284 496.495 299.064 498.035 299.843 C 499.575 300.623 501.085 301.403 502.565 302.183 C 503.515 302.683 504.455 303.212 505.395 303.713 C 506.745 304.448 508.075 305.184 509.375 305.919 C 509.775 306.14 510.165 306.375 510.555 306.596 C 510.805 306.758 511.045 306.89 511.285 307.038 C 511.755 307.317 512.235 307.582 512.695 307.861 C 513.165 308.126 513.625 308.406 514.085 308.7 C 514.535 308.965 514.995 309.244 515.435 309.524 C 515.885 309.789 516.325 310.068 516.765 310.362 C 517.135 310.583 517.495 310.818 517.845 311.054 C 518.555 311.51 519.265 311.966 519.955 312.437 C 520.295 312.672 520.635 312.893 520.975 313.128 L 521.755 313.658 C 521.865 313.746 521.975 313.82 522.085 313.893 C 522.335 314.07 522.595 314.261 522.845 314.438 C 523.425 314.835 523.995 315.261 524.555 315.659 C 525.305 316.218 526.035 316.777 526.735 317.321 C 527.445 317.88 528.135 318.439 528.795 318.983 C 528.905 319.072 529.005 319.16 529.115 319.248 C 529.265 319.366 529.415 319.498 529.565 319.616 C 530.075 320.043 530.565 320.484 531.055 320.911 C 532.015 321.779 532.925 322.632 533.775 323.485 C 533.965 323.676 534.145 323.868 534.335 324.044 C 534.965 324.706 535.565 325.354 536.125 326.016 C 536.125 326.03 536.125 326.03 536.135 326.03 C 536.325 326.236 536.505 326.457 536.685 326.663 C 536.835 326.869 536.995 327.045 537.145 327.251 C 537.665 327.913 538.145 328.546 538.585 329.193 C 538.733 329.393 538.873 329.604 539.005 329.826 C 539.064 329.897 539.117 329.976 539.165 330.061 C 539.365 330.355 539.545 330.65 539.715 330.944 C 539.742 330.984 539.765 331.029 539.785 331.076 C 540.025 331.488 540.245 331.9 540.455 332.312 C 540.555 332.518 540.665 332.724 540.755 332.93 C 540.875 333.18 540.995 333.445 541.095 333.695 C 541.185 333.901 541.265 334.122 541.345 334.328 C 541.558 334.858 541.738 335.414 541.885 335.99 C 541.998 336.381 542.088 336.784 542.155 337.196 C 542.231 337.587 542.288 337.986 542.326 338.388 Z" fill="#2f2e41" id="svg_102" data-darkreader-inline-fill="" style="--darkreader-inline-fill:#262534;"/>
    <path fill="#292838" d="m543.99225,309.7701c-0.01006,1.75 -0.03017,4.2 -0.11062,7.23c-0.01006,0.42 -0.03017,0.85 -0.04023,1.29c-0.10057,4.25 -0.25142,9.5 -0.46261,15.43c-0.01006,0.36 -0.02011,0.71 -0.04023,1.07c-0.28159,7.24 -0.72409,15.67 -1.48841,29.02c-1.41801,24.66 -3.89198,3.39 -6.37601,12.04c-6.89897,-4.22 -14.46168,-8.64 -22.54735,-13.18q-2.18735,-1.23 -4.41494,-2.47c-16.17134,-8.97 -34.23335,-18.37006 -53.08986,-27.68c-0.7442,-0.37 -1.49846,-0.74 -2.24267,-1.1c-43.19396,-21.23 -90.34025,-41.88 -128.53598,-55.66c-7.37164,-2.66 -14.4114,-5.06 -21.02877,-7.17005c-13.93873,-4.43 -25.98678,-7.53 -35.25915,-8.87c-9.65453,-1.4 -16.32219,-0.9 -19.01741,1.99q-0.15091,-3.06 -0.31176,-5.86q-0.0604,-0.93 -0.12068,-1.83c0.06206,-0.16462 0.14272,-0.32172 0.2208,-0.48017c0.01117,-0.02313 0.01911,-0.047 0.03062,-0.06982a1.00769,1.002 0 0 1 0.0704,-0.15a1.63216,1.62294 0 0 1 0.10057,-0.18a1.06587,1.05985 0 0 1 0.12068,-0.2c0.09051,-0.14 0.19108,-0.29 0.3017,-0.43a3.50239,3.48261 0 0 1 0.26148,-0.30005a0.64062,0.637 0 0 1 0.11062,-0.13c0.04023,-0.04 0.08045,-0.09 0.13074,-0.13995a0.3033,0.30159 0 0 1 0.08045,-0.08a2.04468,2.03313 0 0 1 0.26148,-0.25a9.67854,9.62387 0 0 1 1.14648,-0.9c0.14074,-0.09 0.29165,-0.18 0.43244,-0.28a19.24397,19.13528 0 0 1 3.18801,-1.52c0.38216,-0.14 0.76432,-0.27 1.17665,-0.41c0.15085,-0.04 0.29165,-0.09 0.4425,-0.14c0.22125,-0.07 0.4425,-0.14 0.67381,-0.19c1.14648,-0.34 2.38346,-0.63 3.72102,-0.9c0.40227,-0.08 0.82466,-0.16 1.24704,-0.23c0.34193,-0.06 0.69392,-0.12 1.04591,-0.18c2.98687,-0.47 6.37601,-0.82 10.11714,-1.05q0.52798,-0.03 1.05596,-0.06c0.41233,-0.02 0.82466,-0.04 1.24704,-0.06c0.35199,-0.02 0.71403,-0.03 1.07608,-0.04c0.35199,-0.02 0.71403,-0.03 1.08613,-0.04c1.01574,-0.03 2.06164,-0.06 3.12767,-0.08c3.03715,-0.05 6.23522,-0.03 9.59419,0.04c1.5588,0.03 3.14778,0.08 4.77698,0.15c0.10057,0 0.21119,0.01 0.31176,0.01c1.41801,0.04 2.85613,0.11 4.31437,0.18c1.02579,0.05 2.06164,0.1 3.09744,0.16c0.97551,0.06 1.96108,0.12 2.9567,0.19c0.77437,0.04 1.54875,0.1 2.33318,0.15c0.66375,0.05 1.3275,0.1 1.99125,0.14c0.79449,0.06 1.58897,0.12 2.39352,0.18c1.10625,0.09 2.2125,0.18 3.33886,0.27c1.1163,0.1 2.25272,0.2 3.38914,0.3s2.28289,0.21 3.42937,0.32c0.12068,0.01 0.23131,0.02 0.34193,0.03c1.04591,0.11005 2.09181,0.21 3.14778,0.32q8.77959,0.885 18.07207,2.07q5.55135,0.705 11.2435,1.51c5.76255,0.81 11.61561,1.69 17.50889,2.63q8.8551,1.425 17.8106,3.01c1.50852,0.27 3.01704,0.54 4.53562,0.82q2.77568,0.50994 5.55135,1.04c1.16659,0.22 2.33318,0.44 3.49977,0.67c1.38784,0.27 2.78573,0.54 4.17357,0.81c9.14163,1.8 18.23292,3.72 27.10308,5.73c1.45824,0.32995 2.91647,0.67 4.36465,1q4.34454,1.005 8.60862,2.04c0.78443,0.19 1.5588,0.38 2.33318,0.57q2.91144,0.72 5.76255,1.44l0,0.01c0.11062,0.02 0.22125,0.05 0.33187,0.08c1.38784,0.35 2.76562,0.7 4.13335,1.06q4.84235,1.26 9.52379,2.54c2.0717,0.57995 4.12329,1.15 6.14471,1.73c3.0271,0.88 5.99385,1.76 8.88016,2.64c0.71403,0.22 1.42807,0.44 2.13204,0.65q3.16789,0.99 6.2151,1.97c1.60909,0.52 3.17795,1.05 4.7267,1.58q2.32312,0.795 4.55573,1.59c0.96545,0.34 1.91079,0.69 2.84607,1.03c1.36773,0.5 2.69522,1 4.00261,1.51c0.40227,0.15 0.79449,0.31 1.1867,0.46c0.73415,0.28 1.44818,0.57 2.15216,0.86c0.47267,0.18 0.93528,0.37 1.3979,0.57c0.45256,0.18 0.91517,0.37 1.35767,0.56c0.45256,0.18 0.89506,0.37 1.33755,0.57c0.3721,0.15 0.73415,0.31 1.08613,0.47c0.71403,0.31 1.42807,0.62 2.12199,0.94c0.34193,0.16 0.68386,0.31 1.02579,0.47l0.78443,0.36c0.11062,0.06 0.22125,0.11 0.33187,0.16c0.85483,0.4 1.67949,0.8 2.48403,1.2c0.75426,0.38 1.48841,0.76 2.19238,1.13c0.83471,0.43994 1.6292,0.87 2.39352,1.31c0.15085,0.07995 0.3017,0.17 0.45256,0.25c0.5129,0.29 1.00568,0.59 1.49846,0.87994c0.96545,0.59 1.88062,1.17 2.73545,1.75c0.84477,0.58 1.6292,1.15 2.36335,1.72c0,0.01 0,0.01 0.01006,0.01c0.35199,0.28 0.69392,0.56 1.01574,0.83c0.52295,0.45 1.00568,0.87994 1.44818,1.32a5.69919,5.667 0 0 1 0.42239,0.43a1.21525,1.20839 0 0 1 0.16091,0.16c0.21119,0.23 0.42239,0.46 0.62358,0.69c0.24136,0.28 0.46261,0.56 0.67381,0.84c0.10057,0.14 0.21119,0.28 0.3017,0.42c0.12068,0.17 0.24136,0.35 0.34193,0.52c0.09051,0.14 0.17097,0.29 0.25142,0.43006a7.29782,7.2566 0 0 1 0.54307,1.12994a6.0875,6.05312 0 0 1 0.27153,0.82a5.87762,5.84442 0 0 1 0.17096,0.8101z" id="svg_103" data-darkreader-inline-fill="" style="--darkreader-inline-fill:#21202d;"/>
  </g>
</svg>