<svg width="480" height="940" xmlns="http://www.w3.org/2000/svg">

 <g>
  <title>Layer 1</title>
  <g id="svg_1" transform="matrix(1 0 0 1 388.517 685.127)">
   <path id="svg_2" fill="#281c34" d="m142,-265.2c38.7,142.5 88.1,162.4 104.6,196.8c16.5,34.4 0.3,83.4 -11.2,165.1c-11.5,81.7 -18.2,196.1 -108.7,342.9c-90.4,146.7 -264.6,325.9 -382.5,303.4c-117.9,-22.5 -179.5,-246.8 -149.7,-416.5c29.9,-169.8 151.1,-285 153.8,-442.2c2.6,-157.1 -113.2,-356.2 -83.2,-500.2c30.1,-144 206,-233.1 308,-145c102,88 130.1,353.2 168.9,495.7"/>
  </g>
  <rect id="svg_3" height="526" width="236" y="-3" x="334" fill="#281c34"/>
 </g>
</svg>